<?xml version="1.0" encoding="UTF-8"?>
<svg id="Layer_2" data-name="Layer 2" xmlns="http://www.w3.org/2000/svg" viewBox="0 0 85.86 14.56">
  <defs>
    <style>
      .cls-1 {
        fill: #8a7a3d;
      }
    </style>
  </defs>
  <g id="Layer_1-2" data-name="Layer 1">
    <g>
      <path class="cls-1" d="M2.43,14.31c1.15,0,1.82-.83,1.82-2.66V1.58c0-1.06-.15-1.08-1.42-1.15v-.22h3.78v.22c-1.27.08-1.42.09-1.42,1.15v9.98c0,2.18-1.45,3.01-2.79,3.01-1.13,0-2.4-.5-2.4-1.82l.91-.04c.03,1.11.73,1.6,1.52,1.6Z"/>
      <path class="cls-1" d="M14.64,10.67v.21l-2.06.3v-1.47c-.63.97-1.27,1.55-2.32,1.55-.6,0-1.08-.18-1.34-.55-.26-.35-.4-.7-.4-1.83v-3.1c0-.64-.18-.68-1.13-.7v-.2l1.96-.31v4.05c0,.99.09,1.41.23,1.68.17.28.47.54,1.01.54.69,0,1.27-.38,1.99-1.54v-3.51c0-.64-.18-.68-1.13-.7v-.2l1.96-.31v5.42c0,.64.15.68,1.23.7Z"/>
      <path class="cls-1" d="M22.57,10.85v.24h-3.09v-.24h1.13v-3.71c0-.99-.09-1.41-.24-1.68-.15-.28-.47-.54-1.01-.54-.7,0-1.28.38-2.01,1.54v4.38h1.13v.26h-3.09v-.24h1.13v-5.09c0-.64-.18-.68-1.13-.7v-.2l1.96-.31v1.49c.64-.97,1.28-1.55,2.34-1.55.6,0,1.08.19,1.36.55.26.35.4.7.4,1.83v3.97h1.13Z"/>
      <path class="cls-1" d="M28.92,9.54l.22.13c-.58,1-1.51,1.58-2.57,1.58-1.97,0-3.21-1.61-3.21-3.38,0-2,1.34-3.38,3.15-3.38,1.43,0,2.65.86,2.73,2.57h-4.88c-.01.15-.03.32-.03.47,0,1.95,1.04,3.32,2.55,3.32.86,0,1.49-.44,2.05-1.31ZM24.39,6.8h3.33c.37,0,.53-.19.53-.52,0-.83-.65-1.54-1.77-1.54-1.26,0-1.91.92-2.09,2.06Z"/>
      <path class="cls-1" d="M34.63,3.29c-.23,0-.41-.15-.47-.36-.28-.92.7-2.93,3.11-2.93,1.67,0,3.13.94,3.13,2.83,0,2.22-2.75,4.87-5.29,7.51h5.42l-.33.76h-6.08v-.06c3.6-3.82,5.3-6.03,5.3-8.13,0-1.46-.74-2.63-2.2-2.63-1.95,0-2.46,1.6-2.14,2.79-.13.19-.28.23-.44.23Z"/>
      <path class="cls-1" d="M42.01,5.61c0-3.66,1.59-5.61,3.62-5.61s3.61,1.95,3.61,5.61-1.59,5.64-3.61,5.64-3.62-1.95-3.62-5.64ZM48.28,5.61c0-3.53-.94-5.34-2.64-5.34s-2.65,1.81-2.65,5.34.94,5.37,2.65,5.37,2.64-1.81,2.64-5.37Z"/>
      <path class="cls-1" d="M54.94,3.29c-.23,0-.41-.15-.47-.36-.28-.92.7-2.93,3.11-2.93,1.66,0,3.12.94,3.12,2.83,0,2.22-2.75,4.87-5.29,7.51h5.42l-.33.76h-6.08v-.06c3.6-3.82,5.3-6.03,5.3-8.13,0-1.46-.74-2.63-2.2-2.63-1.95,0-2.46,1.6-2.14,2.79-.13.19-.28.23-.44.23Z"/>
      <path class="cls-1" d="M62.31,5.61c0-3.66,1.59-5.61,3.62-5.61s3.61,1.95,3.61,5.61-1.59,5.64-3.61,5.64-3.62-1.95-3.62-5.64ZM68.58,5.61c0-3.53-.94-5.34-2.64-5.34s-2.65,1.81-2.65,5.34.94,5.37,2.65,5.37,2.64-1.81,2.64-5.37Z"/>
      <path class="cls-1" d="M71.58,3.29c-.23,0-.41-.15-.47-.36-.28-.92.7-2.93,3.11-2.93,1.66,0,3.12.94,3.12,2.83,0,2.22-2.75,4.87-5.29,7.51h5.42l-.33.76h-6.08v-.06c3.6-3.82,5.3-6.03,5.3-8.13,0-1.46-.74-2.63-2.2-2.63-1.95,0-2.46,1.6-2.14,2.79-.13.19-.28.23-.44.23Z"/>
      <path class="cls-1" d="M85.86,7.81c0,1.91-1.51,3.43-3.5,3.43s-3.45-1.52-3.45-4.01c0-3.25,2.66-6.43,6.2-7.24l.05.19c-3.11.84-5.01,3.29-5.35,6.4.44-1.08,1.52-1.87,2.91-1.87,1.73,0,3.14,1.23,3.14,3.09ZM84.91,8.07c0-1.66-.99-2.87-2.5-2.87s-2.56,1.02-2.56,2.65c0,2.23,1.28,3.13,2.51,3.13,1.73,0,2.55-1.41,2.55-2.91Z"/>
    </g>
  </g>
</svg>