<?xml version="1.0" encoding="UTF-8"?>
<svg id="Layer_2" data-name="Layer 2" xmlns="http://www.w3.org/2000/svg" viewBox="0 0 180.64 166.45">
  <defs>
    <style>
      .cls-1 {
        fill: #8a7a3d;
      }
    </style>
  </defs>
  <g id="Layer_1-2" data-name="Layer 1">
    <g>
      <path class="cls-1" d="M52.4,46.31h30.37v1.84c-6.94.22-9.44.98-9.44,2.93,0,1.52,1.41,3.47,3.69,6.72l25.92,36.66,21.26-31.02c9.65-13.99,8.89-14.97-1.95-15.29v-1.84h23.64v1.84c-7.81.33-8.79,1.08-17.35,13.45l-24.51,35.57v29.72c0,9,1.3,9.11,12.04,9.76v1.84h-32v-1.84c10.74-.65,12.04-.76,12.04-9.76v-28.31l-31.02-43.71c-4.01-5.64-7.7-6.4-12.69-6.72v-1.84Z"/>
      <path class="cls-1" d="M98.5,102.4l.61.61c-11.54,10.27-25.25,17.46-41.11,21.55-12.87,14.54-23.49,25.16-31.85,31.85-8.37,6.69-14.48,10.04-18.35,10.04-2.13,0-3.97-.69-5.5-2.08-1.53-1.38-2.29-3.06-2.29-5.02,0-4.39,3.79-9.42,11.38-15.1,7.59-5.68,20.27-11.58,38.04-17.7,9.4-11.43,24.81-32.69,46.22-63.79-4.44-.58-8.08-2.42-10.91-5.54-2.83-3.12-4.24-6.61-4.24-10.47,0-7.21,4.01-14.53,12.03-21.94,8.02-7.42,18.88-13.4,32.59-17.96,13.7-4.56,27.22-6.84,40.55-6.84,4.62,0,9.61.29,14.97.87v.78c-13.73,2.25-26.62,7.36-38.65,15.34-12.03,7.98-24.88,23.12-38.56,45.42,8.02-.23,15.91-3.42,23.67-9.56,7.76-6.15,13.55-13.06,17.35-20.73l.69.26c-3.58,7.96-9.55,15.13-17.92,21.51-8.37,6.38-16.5,9.56-24.41,9.56-2.31,4.04-6.55,10.36-12.72,18.96l-11.69,16.27c-8.66,12.06-15.15,20.2-19.48,24.41,5.02-.75,10.65-2.61,16.88-5.58,6.23-2.97,12.06-6.56,17.48-10.78l5.19-4.33ZM48.47,128.02c-14.71,4.62-26.23,9.84-34.54,15.67-8.31,5.83-12.46,11.02-12.46,15.58,0,1.56.58,2.9,1.73,4.03,1.15,1.12,2.68,1.69,4.59,1.69,2.37,0,5.67-1.38,9.91-4.16,4.24-2.77,10.34-8.8,18.31-18.09l12.46-14.71ZM96.25,61.8c9.23-13.94,20.25-26.43,33.06-37.47,12.81-11.03,28.36-18.63,46.65-22.78-2.72-.46-5.95-.69-9.7-.69-14.04,0-27.68,2.36-40.94,7.09-13.26,4.72-23.75,11.05-31.49,18.97-7.74,7.92-11.61,15.08-11.61,21.48,0,3.52,1.47,6.63,4.4,9.34,2.93,2.71,6.14,4.06,9.62,4.06Z"/>
    </g>
  </g>
</svg>